/* XPM */
static char *_3ad140f2aef413fb235b90603d6d8153xHVHWR164VUiq9e[] = {
/* columns rows colors chars-per-pixel */
"64 64 218 2 ",
"   c #021200",
".  c #000B00",
"X  c #1C3716",
"o  c #0F3413",
"O  c #253C17",
"+  c #163D24",
"@  c #093B25",
"#  c #2D3D20",
"$  c #24411C",
"%  c #29461B",
"&  c #2C4C1E",
"*  c #244416",
"=  c #324D1D",
"-  c #30501E",
";  c #1A4321",
":  c #084939",
">  c #2C4C23",
",  c #254A26",
"<  c #314D23",
"1  c #364E2C",
"2  c #2B5227",
"3  c #355324",
"4  c #35552A",
"5  c #3B5B2C",
"6  c #3B542D",
"7  c #285938",
"8  c #3E5734",
"9  c #3B622D",
"0  c #3E6432",
"q  c #445B38",
"w  c #415D2A",
"e  c #4B653C",
"r  c #4B6C3B",
"t  c #456737",
"y  c #4C743A",
"u  c #4E793D",
"i  c #536F3F",
"p  c #0D3976",
"a  c #423978",
"s  c #015A52",
"d  c #014F41",
"f  c #1A745D",
"g  c #216648",
"h  c #28705A",
"j  c #3D457A",
"k  c #315879",
"l  c #006A65",
"z  c #067C79",
"x  c #127469",
"c  c #2A7368",
"v  c #4B5D42",
"b  c #4B6744",
"n  c #546D45",
"m  c #546B49",
"M  c #557343",
"N  c #597546",
"B  c #5A7A46",
"V  c #5A764C",
"C  c #5D7C4C",
"Z  c #567946",
"A  c #597A54",
"S  c #617D4E",
"D  c #637B54",
"F  c #617753",
"G  c #524C7A",
"H  c #4B5A6D",
"J  c #58747C",
"K  c #626462",
"L  c #666668",
"P  c #6A6977",
"I  c #6A6978",
"U  c #686775",
"Y  c #7E7E7C",
"T  c #72707B",
"R  c #158C7B",
"E  c #1A8C7C",
"W  c #0D807B",
"Q  c #398B6F",
"!  c #38896D",
"~  c #278979",
"^  c #398D70",
"/  c #338D76",
"(  c #2D937B",
")  c #34947A",
"_  c #568041",
"`  c #5E824A",
"'  c #5D8547",
"]  c #4F835C",
"[  c #56855A",
"{  c #59865B",
"}  c #56895C",
"|  c #58895C",
" . c #63814E",
".. c #638352",
"X. c #6A855A",
"o. c #47886B",
"O. c #628262",
"+. c #80807E",
"@. c #83977D",
"#. c #3B328C",
"$. c #31398C",
"%. c #3B3090",
"&. c #3D3B9C",
"*. c #393E92",
"=. c #31328C",
"-. c #3D3BA0",
";. c #453B86",
":. c #41378C",
">. c #423793",
",. c #433995",
"<. c #42379E",
"1. c #44399C",
"2. c #4437A1",
"3. c #453AA2",
"4. c #4838A3",
"5. c #2C559A",
"6. c #38528D",
"7. c #316A87",
"8. c #3057A2",
"9. c #165E8F",
"0. c #4E488C",
"q. c #474786",
"w. c #524A8B",
"e. c #514789",
"r. c #5E5987",
"t. c #605A8B",
"y. c #605B83",
"u. c #696683",
"i. c #4240A1",
"p. c #028E8D",
"a. c #0B8B85",
"s. c #128C84",
"d. c #148D8D",
"f. c #09948D",
"g. c #1A968A",
"h. c #029493",
"j. c #039A96",
"k. c #0A9C95",
"l. c #019C9C",
"z. c #0A9C9A",
"x. c #079696",
"c. c #1B9A95",
"v. c #148C95",
"b. c #368B8A",
"n. c #03A19E",
"m. c #0AA29D",
"M. c #1CA497",
"N. c #28A293",
"B. c #1589A2",
"V. c #019FA0",
"C. c #1899AD",
"Z. c #1D9AB2",
"A. c #2589A9",
"S. c #02A4A3",
"D. c #0BA3A4",
"F. c #03A9A7",
"G. c #0AA9A4",
"H. c #02A7A8",
"J. c #03ABAB",
"K. c #0AAAAB",
"L. c #12A9A4",
"P. c #20AAB7",
"I. c #45ADAB",
"U. c #4AA4A5",
"Y. c #46B5B6",
"T. c #76A7A4",
"R. c #818281",
"E. c #89898A",
"W. c #8A9C84",
"Q. c #869680",
"!. c #9D9D9D",
"~. c #96A88C",
"^. c #99AA91",
"/. c #9BB195",
"(. c #8EA086",
"). c #A7B69B",
"_. c #99B6A6",
"`. c #ABBDA3",
"'. c #B1B1B2",
"]. c #9097B1",
"[. c #ADC2A6",
"{. c #AFC1A9",
"}. c #B3C6AC",
"|. c #B7C9B0",
" X c #A4DBDC",
".X c #A1D7D9",
"XX c #B4DDDF",
"oX c #B7DFE1",
"OX c #ABE4E5",
"+X c #B4E5E2",
"@X c #CBCBCA",
"#X c #C1C1C1",
"$X c #D3D3D3",
"%X c #D9DCD9",
"&X c #CFD5CE",
"*X c #DAE5D4",
"=X c #DDE7D8",
"-X c #D6E5D5",
";X c #C2E5DA",
":X c #DBDAE0",
">X c #E1DFE0",
",X c #DEE9FF",
"<X c #E5E5E5",
"1X c #E6E5E9",
"2X c #EBEBEC",
"3X c #E7EAE7",
"4X c #EBE5FF",
"5X c #EDEAFF",
"6X c #E5E4F6",
"7X c #F1EDFF",
"8X c #F0EFF7",
"9X c #E5FFFF",
"0X c #EBFFFF",
"qX c #F4F4F4",
"wX c #FBFFF6",
"eX c #F5F4F9",
"rX c #F4FFFF",
"tX c #FFFFFF",
/* pixels */
"tXtXtXtXtXtXtXtXtXtXtXtXtXtXtXtXtXtXtXtXtXwXwXtXtXtXtXtXtXtXtXtXtXtXtXtXtXtXtXtXtXtXtXtXtXtXtXtXtXtXtXtXtXtXtXtXtXtXtXtXtXtXtXtX",
"tXtXtXtXtXtXtXtXtXtXtXtXtXtXtXtXtXtXtXtXtXtXtXtXwXtXwXwXwXtXwXwXwXwXwXtXwXtXwXtXtXtXtXtXtXtXtXtXtXtXtXtXtXtXtXtXtXtXtXtXtXtXtXtX",
"tXtXtXtXtXtXtXtXtXtXtXtXtXtXtXtXtXtXtXtXtXtXtXtXtXtXwXwXtXrXwXwXwXwXwXwXwXtXwXwXtXtXtXtXtXtXwXtXtXtXtXtXtXtXtXtXtXtXtXtXtXtXtXtX",
"tXtXtXtXtXtXtXtXtXtXtXtXtXtXtXtXtXtXtXtXtXtXwXtX&XE.W.W.(.(.X.@.Q.W.(.(.W.W.@.&XwXtXtXtXtXtXtXtXtXtXtXtXtXtXtXtXtXtXtXtXtXtXtXtX",
"tXtXtXtXtXtXtXtXtXtXtXtXtXtXtXtXtXtXtXtXtXtXwXtX`.O 4 , > * * * & 2 4 4 3 4 % `.wXtXtXtXtXtXtXtXtXtXtXtXtXtXtXtXtXtXtXtXtXtXtXtX",
"tXtXtXtXtXtXtXtXtXtXtXtXtXtXtXtXtXtXtXtXtXtXtXwX`.> 9 9 y u u u y 0 0 9 9 9 4 [.wXtXtXtXtXtXtXtXtXtXtXtXtXtXtXtXtXtXtXtXtXtXtXtX",
"tXtXtXtXtXtXtXtXtXtXtXtXtXtXtXtXtXtXtXtXtXtXtXeX[.% 9 9 y _ _ _ t t 9 9 0 0 > [.wXtXtXtXtXtXtXtXtXtXtXtXtXtXtXtXtXtXtXtXtXtXtXtX",
"tXtXtXtXtXtXtXtXtXtXtXtXtXtXtXtXtXtXtXtXtXtXtXwX[.5 y y Z ' ' _ ....C C Z b > `.wXwXtXtXtXtXtXtXtXtXtXtXtXtXtXtXtXtXtXtXtXtXtXtX",
"tXtXtXtXtXtXtXtXtXtXtXtXtXtXtXtXtXtXtXtXtXtXtXwX}.5 r y B  . . .....` A B M < `.tXtXtXtXtXtXtXwXtXtXtXtXtXtXtXtXtXtXtXtXtXtXtXtX",
"tXtXtXtXtXtXtXtXtXtXtXtXtXtXtXtXtXtXtXtXtXtXwXtX[.8 e b B  .i e _ C V V D V v |.rXwXtXtXtXtXtXtXtXtXtXtXtXtXtXtXtXtXtXtXtXtXtXtX",
"tXtXtXtXtXtXtXtXtXtXtXtXtXtXtXtXtXtXtXtXtXtXtXwX}.q q q b m n i N n q v v m b |.tXwXtXtXtXtXtXwXtXtXtXtXtXtXtXtXtXtXtXtXtXtXtXtX",
"tXtXtXtXtXtXtXtXtXtXtXtXtXtXtXtXtXtXtXtXtXtXwXwX}.m 1     . e ..S b     . O F |.eXtXtXtXtXtXtXtXtXtXtXtXtXtXtXtXtXtXtXtXtXtXtXtX",
"tXtXtXtXtXtXtXtXtXtXtXtXtXtXtXtXtXtXtXtXtXtXwXwX[.w 4 X % O q e q q O # O w q |.wXtXtXtXtXtXtXtXtXtXtXtXtXtXtXtXtXtXtXtXtXtXtXtX",
"tXtXtXtXtXtXtXtXtXtXtXtXtXtXtXtXtXtXtXtXtXtXwXtX`.X 9 t N X.3 O O = X.D F m 1 }.wXtXtXtXtXtXtXtXtXtXtXtXtXtXtXtXtXtXtXtXtXtXtXtX",
"tXtXtXtXtXtXtXtXtXtXtXtXtXtXtXtXtXtXtXtXtXtXwXwX).% 4 9 t t 3 < = 3 e e t t < `.tXtXtXtXtXtXtXtXtXtXtXtXtXtXtXtXtXtXtXtXtXtXtXtX",
"tXtXtXtXtXtXtXtXtXtXtXtXtXtXtXtXtXtXtXtXtXtXwXtX`.* 3 5 = * 5 5 w w = 3 3 5 < `.wXtXtXwXtXtXtXtXtXtXtXtXtXtXtXtXtXtXtXtXtXtXtXtX",
"tXtXtXtXtXtXtXtXtXtXtXtXtXtXtXtXtXtXtXtXtXwXwXwX`.X > 3 & % 3 3 - - > , > < O `.wXtXtXtXtXtXtXtXtXtXtXtXtXtXtXtXtXtXtXtXtXtXtXtX",
"tXtXtXtXtXtXtXtXtXtXtXtXtXtXtXtXtXrX0X0X9X9X9X0X_.@ , 7 , % < 3 % % % # X + o _.0X9X0X0X9X9XrXtXtXtXtXtXtXtXtXtXtXtXtXtXtXtXtXtX",
"tXtXtXtXtXtXtXtXtXtXtXtXtXtXtXrXrXoXU.Y.I.I.I.U.b.s d : ; X X % O X X + : : : c b.b.I.Y.Y.U.XXrXtXtXtXtXtXtXtXtXtXtXtXtXtXtXtXtX",
"tXtXtXtXtXtXtXtXtXtXtXtXtXtXtXtXrX.Xd.z.z.h.x.p.x.a.x s : @ ; ; X o @ : s s l l l z k.G.D.v..XrXtXtXtXtXtXtXtXtXtXtXtXtXtXtXtXtX",
"tXtXtXtXtXtXtXtXtXtXtXtXtXtXtXrXrX Xa.D.D.V.l.V.z.h.k.a.W x 7 7 2 7 x s.a.f.k.V.z.x.S.K.G.d. XrXrXtXtXtXtXtXtXtXtXtXtXtXtXtXtXtX",
"tXtXtXtXtXtXtXtXtXtXtXtXtXtXtXrXrXOXd.V.H.V.V.V.l.l.l.j.j.a.f g g f s.x.S.F.J.J.K.K.J.J.G.d. XrXrXtXtXtXtXtXtXtXtXtXtXtXtXtXtXtX",
"tXtXtXtXtXtXtXtXtXtXtXtXtXtXtXtXrXOXc.K.S.S.V.z.l.n.l.n.l.f.a.R s.a.x.l.H.F.F.H.H.F.J.J.J.C.OXrXtXtXtXtXtXtXtXtXtXtXtXtXtXtXtXtX",
"tXtXtXtXtXtXtXtXtXtXtXtXtXtXtXrXrXOXg.m.m.n.m.x.j.n.S.l.l.l.h.p.p.p.V.V.J.J.J.S.n.G.K.G.G.g.OXrXrXtXtXtXtXtXtXtXtXtXtXtXtXtXtXtX",
"tXtXtXtXtXtXtXtXtXtXtXtXtXtXtXtXrX+X~ g.c.g.g.s.f.k.m.S.V.n.h.h.p.p.S.F.K.K.D.z.f.M.M.M.M.E +XrXtXtXtXtXtXtXtXtXtXtXtXtXtXtXtXtX",
"tXtXtXtXtXtXtXtXtXtXtXtXtXtXtXtXrX;X! / ( ( ) ( g.f.h.h.V.S.V.l.p.h.H.H.V.V.z.g.b.) ) ( ( ^ ;XrXtXtXtXtXtXtXtXtXtXtXtXtXtXtXtXtX",
"tXtXtXtXtXtXtXtXtXtXtXtXtXtXtXwXtX-XA [ ] ] ] ] / s.p.h.l.F.H.S.h.j.H.H.j.f.s.) o.} [ } } A -XtXtXtXtXtXtXtXtXtXtXtXtXtXtXtXtXtX",
"tXtXtXtXtXtXtXtXtXtXtXtXtXtXtXtXwX*XF .. .B M | ! E f.h.l.H.S.l.h.j.J.H.n.k.E Q [ N B  .....=XtXwXtXtXtXtXtXtXtXtXtXtXtXtXtXtXtX",
"tXtXtXtXtXtXtXtXtXtXtXtXtXtXtXtXtX*XD ....B i | ! R f.j.n.J.S.V.j.n.J.J.n.k.R Q [ M N  .S F *XtXtXtXtXtXtXtXtXtXtXtXtXtXtXtXtXtX",
"tXtXtXtXtXtXtXtXtXtXtXtXtXtXtXtXtX-Xm C ..N i [ ! E m.K.J.J.l.j.S.F.J.F.S.k.E Q { M Z ..S m *XtXtXtXtXtXtXtXtXtXtXtXtXtXtXtXtXtX",
"tXtXtXtXtXtXtXtXtXtXtXtXtXtXtXtXtX*Xm C ..` B | Q R z.J.J.J.n.l.H.F.J.J.n.j.R ^ { N N ..C n *XwXtXtXtXtXtXtXtXtXtXtXtXtXtXtXtXtX",
"tXtXtXtXtXtXtXtXtXtXtXtXtXtXtXtXwX-Xn C X... .} ^ R z.J.J.J.n.j.H.F.J.F.S.m.R ^ {  .....N n *XtXtXtXtXtXtXtXtXtXtXtXtXtXtXtXtXtX",
"tXtXtXtXtXtXtXtXtXtXtXtXtXtXtXtXtX*Xn C X.....} ^ g.D.J.J.J.l.j.S.S.J.J.J.z.R Q [  . ...C n -XwXtXtXtXtXtXtXtXtXtXtXtXtXtXtXtXtX",
"tXtXtXtXtXtXtXtXtXtXtXtXtXtXtXtXtX*Xm C ` ....| ^ N.L.K.J.H.l.j.S.S.J.J.J.z.R Q {  . . .B n *XtXtXtXtXtXtXtXtXtXtXtXtXtXtXtXtXtX",
"tXtXtXtXtXtXtXtXtXtXtXtXtXtXtXtXwX*XC ..X.` ..} ^ g.k.l.S.V.V.S.J.J.F.J.J.k.R Q { S S ..C V =XtXtXtXtXtXtXtXtXtXtXtXtXtXtXtXtXtX",
"tXtXtXtXtXtXtXtXtXtXtXtXtXtXtXtXtX*XX...{ ....O.! b.B.B.B.B.C.Z.Z.Z.C.D.K.k.R Q {  ...C ..F *XtXtXtXtXtXtXtXtXtXtXtXtXtXtXtXtXtX",
"tXtXtXtXtXtXtXtXtXtXtXtXtXtXtXtXtX*XD ` N S  .O.J k 6.5.8.5.5.8.5.5.9.9.P.m.E Q { ..S M S D *XtXtXtXtXtXtXtXtXtXtXtXtXtXtXtXtXtX",
"tXtXtXtXtXtXtXtXtXtXtXtXtXtXtXtXtX*XD  .N S ..D J j *.-.-.-.-.-.-.*.=.5.A.v.~ ! { S F Z C D =XwXtXtXtXtXtXtXtXtXtXtXtXtXtXtXtXtX",
"tXtXtXtXtXtXtXtXtXtXtXtXtXtXtXtXtX%Xb e e N V b H j 1.3.i.3.3.3.8.2.i.*.p 7.b.h h S n e e q %XtXtXtXtXtXtXtXtXtXtXtXtXtXtXtXtXtX",
"tXtXtXtXtXtXtXtXtXtXtXtXtXtXtXtXtX3X^./.^././._.].G i.3.3.3.3.3.2.2.<.&.$.6.7.T./././.^./.^.3XtXtXtXtXtXtXtXtXtXtXtXtXtXtXtXtXtX",
"tXtXtXtXtXtXtXtXtXtXtXtXtXtXtXtXtXtXwXwXtXwXwXtX4X0.*.3.3.4.3.4.2.3.3.3.3.*.q.,XtXwXwXtXeXtXtXtXtXtXtXtXtXtXtXtXtXtXtXtXtXtXtXtX",
"tXtXtXtXtXtXtXtXtXtXtXtXtXtXtXtXtXtXtXtXwXtXtXtX4Xe.1.3.3.3.3.3.4.2.3.3.4.,.e.4XtXrXrXtXtXtXtXwXtXtXtXtXtXtXtXtXtXtXtXtXtXtXtXtX",
"tXtXtXtXtXtXtXtXtXtXtXtXtXtXtXtXwXtXtXtXtXtXtXtX4Xw.,.3.3.3.3.i.3.3.2.3.3.,.e.4XtXtXtXtXtXtXtXtXtXtXtXtXtXtXtXtXtXtXtXtXtXtXtXtX",
"tXtXtXtXtXtXtXtXtXtXtXtXtXtXtXtXtXtXtXtXtXtXeXtX7Xw.1.4.1.3.3.1.3.2.4.2.4.,.0.5XtXwXtXtXtXtXtXtXtXtXtXtXtXtXtXtXtXtXtXtXtXtXtXtX",
"tXtXtXtXtXtXtXtXtXtXtXtXtXtXtXtXtXtXtXtXtXtXtXtX5X0.,.3.3.3.3.1.3.2.2.3.3.,.0.5XtXeXtXtXtXtXtXtXtXtXtXtXtXtXtXtXtXtXtXtXtXtXtXtX",
"tXtXtXtXtXtXtXtXtXtXtXtXtXtXtXtXtXtXtXtXtXtXtXrX5Xe.,.3.3.3.3.3.3.3.3.2.4.,.w.5XtXtXtXtXtXtXtXtXtXtXtXtXtXtXtXtXtXtXtXtXtXtXtXtX",
"tXtXtXtXtXtXtXtXtXtXtXtXtXtXtXtXtXtXtXtXtXtXtXtX7Xw.&.3.3.2.3.3.3.3.3.2.4.>.0.7XtXtXtXtXtXtXtXtXtXtXtXtXtXtXtXtXtXtXtXtXtXtXtXtX",
"tXtXtXtXtXtXtXtXtXtXtXtXtXtXtXtXtXtXtXtXtXtXtXtX7Xw.,.3.3.3.3.3.3.3.3.&.3.>.e.7XtXtXtXtXtXtXtXtXtXtXtXtXtXtXtXtXtXtXtXtXtXtXtXtX",
"tXtXtXtXtXtXtXtXtXtXtXtXtXtXtXtXtXtXtXwXtXtXtXtX5Xw.>.4.<.1.3.2.2.<.<.<.4.>.e.7XtXtXtXtXtXtXtXtXtXtXtXtXtXtXtXtXtXtXtXtXtXtXtXtX",
"tXtXtXtXtXtXtXtXtXtXtXtXtXtXtXtXtXtXtXtXtXtXtXtX7Xw.>.4.1.1.3.1.2.<.<.>.1.>.w.7XtXtXtXtXtXtXtXtXtXtXtXtXtXtXtXtXtXtXtXtXtXtXtXtX",
"tXtXtXtXtXtXtXtXtXtXtXtXtXtXtXtXtXtXwXtXtXtXtXtX7Xw.:.%.%.#.1.3.2.,.%.#.>.:.w.7XtXtXtXtXtXtXtXtXtXtXtXtXtXtXtXtXtXtXtXtXtXtXtXtX",
"tXtXtXtXtXtXtXtXtXtXtXtXtXtXtXtXtXtXtXtXtXtXtXtX7Xe.#.%.#.#.<.3.2.<.#.#.#.:.e.7XtXtXtXtXtXtXtXtXtXtXtXtXtXtXtXtXtXtXtXtXtXtXtXtX",
"tXtXtXtXtXtXtXtXtXtXtXtXtXtXtXtXtXtXwXtXwXtXtXtXeXw.:.1.1.1.3.3.2.3.<.<.1.>.e.7XtXtXtXtXtXtXtXtXtXtXtXtXtXtXtXtXtXtXtXtXtXtXtXtX",
"tXtXtXtXtXtXtXtXtXtXtXtXtXtXtXtXtXtXtXtXtXtXtXtX7X0.,.3.3.3.4.1.3.2.3.4.<.>.e.7XtXtXtXtXtXtXtXtXtXtXtXtXtXtXtXtXtXtXtXtXtXtXtXtX",
"tXtXtXtXtXtXtXtXtXtXtXtXtXtXtXtXtXtXtXtXtXtXtXtX7Xw.:.3.3.<.<.1.1.<.<.2.4.>.e.7XtXtXtXtXtXtXtXtXtXtXtXtXtXtXtXtXtXtXtXtXtXtXtXtX",
"tXtXtXtXtXtXtXtXtXtXtXtXtXtXtXtXtXtXtXtXtXtXtXtX7Xw.:.1.1.1.,.1.,.1.,.1.,.:.e.4XtXtXtXeXtXtXeXtXtXtXtXtXtXtXtXtXtXtXtXtXtXtXtXtX",
"tXtXtXtXtXtXtXtXtXtXtXtXtXtXtXtXtXwXtXwXeXtXtXtX7XG a ;.:.;.;.;.;.;.;.;.;.a G 4XwXeXtXwXtXeXtXtXwXtXtXtXtXtXtXtXtXtXtXtXtXtXtXtX",
"tXtXtXtXtXtXtXtXtXtXtXtXwXeXtXeXwXwXeXeXqXqX2X8X6Xu.y.y.t.t.t.t.t.t.t.r.y.r.u.6X8XqX8XqXeXeXwXeXtXtXtXtXtXtXtXtXtXtXtXtXtXtXtXtX",
"tXtXtXtXtXtXtXtXwXtXtXeXeXwXeXwXqXqXqX2X2X2X1X<X:XT U P P U I I I I I U U U T %X2X3X2X2XqXeXwXtXtXtXtXtXtXtXtXtXtXtXtXtXtXtXtXtX",
"tXtXtXtXtXtXtXtXtXtXtXtXtXtXwXeXqXqX2X1X>X$X@X#X!.L K K K K K K K K K K K K K '.#X$X<X2XqXwXtXeXtXeXtXtXtXtXtXtXtXtXtXtXtXtXtXtX",
"tXtXtXtXtXtXtXtXtXtXtXtXtXeXwXeXtXeXqXqX2X>X%X@X!.E.R.R.+.+.+.Y Y Y Y +.u.+.E.#X%X1X8XqXeXeXtXeXrXtXtXtXtXtXtXtXtXtXtXtXtXtXtXtX",
"tXtXtXtXtXtXtXtXtXtXtXeXtXtXtXtXeXwXeXeXeXeXqX2X2X:X$X$X$X@X@X@X@X@X$X$X%X>X<XqXeXqXqXeXeXwXeXwXwXtXtXtXtXtXtXtXtXtXtXtXtXtXtXtX",
"tXtXtXtXtXtXtXtXtXtXtXtXtXtXtXtXtXeXtXeXtXeXqXqX2X3X1X2X1X1X<X<X<X<X1X1X1X2X2XqXeXtXtXeXwXtXtXtXtXtXtXtXtXtXtXtXtXtXtXtXtXtXtXtX",
"tXtXtXtXtXtXtXtXtXtXtXtXtXtXtXtXtXwXwXtXeXwXeXwXqXqXqXeXqX8XqX8XqXqX8XeXqXqXwXwXtXeXeXwXeXtXeXtXtXtXtXtXtXtXtXtXtXtXtXtXtXtXtXtX"
};
